HIERARCHY
ROOT Hips
{
	OFFSET 0.000000 0.000000 0.000000 
	CHANNELS 6 Xposition Yposition Zposition Zrotation Yrotation Xrotation
	JOINT LeftUpLeg
	{
		OFFSET 1.363060 -1.794630 0.839290 
		CHANNELS 3 Zrotation Yrotation Xrotation
		JOINT LeftLeg
		{
			OFFSET 2.448110 -6.726130 0.000000 
			CHANNELS 3 Zrotation Yrotation Xrotation
			JOINT LeftFoot
			{
				OFFSET 2.562200 -7.039590 0.000000 
				CHANNELS 3 Zrotation Yrotation Xrotation
				JOINT LeftToeBase
				{
					OFFSET 0.157640 -0.433110 2.322550 
					CHANNELS 3 Zrotation Yrotation Xrotation
					End Site
					{
						OFFSET 0.000000 0.000000 0.000000 
					}
				}
			}
		}
	}
	JOINT RightUpLeg
	{
		OFFSET -1.305520 -1.794630 0.839290 
		CHANNELS 3 Zrotation Yrotation Xrotation
		JOINT RightLeg
		{
			OFFSET -2.542530 -6.985550 0.000000 
			CHANNELS 3 Zrotation Yrotation Xrotation
			JOINT RightFoot
			{
				OFFSET -2.568260 -7.056230 0.000000 
				CHANNELS 3 Zrotation Yrotation Xrotation
				JOINT RightToeBase
				{
					OFFSET -0.164730 -0.452590 2.363150 
					CHANNELS 3 Zrotation Yrotation Xrotation
					End Site
					{
						OFFSET 0.000000 0.000000 0.000000 
					}
				}
			}
		}
	}
	JOINT Spine
	{
		OFFSET 0.028270 2.035590 -0.193380 
		CHANNELS 3 Zrotation Yrotation Xrotation
		JOINT Spine1
		{
			OFFSET 0.056720 2.048850 -0.042750 
			CHANNELS 3 Zrotation Yrotation Xrotation
			JOINT Neck1
			{
				OFFSET -0.054170 1.746240 0.172020 
				CHANNELS 3 Zrotation Yrotation Xrotation
				JOINT Head
				{
					OFFSET 0.104070 1.761360 -0.123970 
					CHANNELS 3 Zrotation Yrotation Xrotation
					End Site
					{
						OFFSET 0.000000 0.000000 0.000000 
					}
				}
			}
			JOINT LeftArm
			{
				OFFSET 3.362410 1.200890 -0.311210 
				CHANNELS 3 Zrotation Yrotation Xrotation
				JOINT LeftForeArm
				{
					OFFSET 4.983000 -0.000000 -0.000000 
					CHANNELS 3 Zrotation Yrotation Xrotation
					JOINT LeftHand
					{
						OFFSET 3.483560 -0.000000 -0.000000 
						CHANNELS 3 Zrotation Yrotation Xrotation
						JOINT LeftHandIndex1
						{
							OFFSET 0.715260 -0.000000 -0.000000 
							CHANNELS 3 Zrotation Yrotation Xrotation
							End Site
							{
								OFFSET 0.000000 0.000000 0.000000 
							}
						}
					}
				}
			}
			JOINT RightArm
			{
				OFFSET -3.136600 1.374050 -0.404650 
				CHANNELS 3 Zrotation Yrotation Xrotation
				JOINT RightForeArm
				{
					OFFSET -5.241900 -0.000000 -0.000000 
					CHANNELS 3 Zrotation Yrotation Xrotation
					JOINT RightHand
					{
						OFFSET -3.444170 -0.000000 -0.000000 
						CHANNELS 3 Zrotation Yrotation Xrotation
						JOINT RightHandIndex1
						{
							OFFSET -0.622530 -0.000000 -0.000000 
							CHANNELS 3 Zrotation Yrotation Xrotation
							End Site
							{
								OFFSET 0.000000 0.000000 0.000000 
							}
						}
					}
				}
			}
		}
	}
}
MOTION
Frames: 10
Frame Time: 0.041667
10.900277 18.584650 -28.453842 179.040660 26.902202 -179.264878 -8.557634 10.471949 -21.949810 -2.358401 9.492680 26.676241 9.240198 -15.090998 42.628884 10.330600 17.591600 60.587500 4.005301 -5.068422 -6.941491 -15.025429 -20.726198 75.527092 179.406249 7.705647 -25.988559 -5.083100 13.476700 -41.180400 -0.222483 2.897691 -4.658906 -1.783577 1.914215 -4.208847 8.623724 5.519641 10.142523 3.675300 3.130800 0.500800 -45.966124 10.816477 9.943746 5.133869 -14.785343 -1.981952 -0.408616 0.194310 -6.177229 -7.125000 0.000000 0.000000 72.694244 -29.515068 -2.931469 -5.805400 13.957119 -3.066172 2.416869 7.118061 -3.379170 7.125000 0.000000 0.000000 
10.913210 18.713765 -28.807022 178.715467 26.786037 -179.529957 -8.822495 9.524540 -20.361612 -2.422324 9.340804 25.843257 8.975205 -13.193851 41.665365 10.254500 17.550500 60.335800 4.469955 -2.999634 -7.975467 -14.215456 -20.637924 73.302140 179.161107 6.948098 -26.990343 -5.479200 13.903900 -42.853900 -0.143902 2.644461 -4.682277 -1.505239 1.769704 -4.300558 8.483851 5.804499 10.823919 3.533800 3.294400 0.927000 -47.277074 10.353206 13.149673 6.578479 -16.628358 -2.468505 -0.309330 0.064766 -8.692859 -7.125000 0.000000 0.000000 72.805980 -28.536743 -1.910684 -5.901143 13.889509 -2.972321 2.508132 6.771472 0.060677 7.125000 0.000000 0.000000 
10.922479 18.919292 -29.152980 178.467064 26.237724 -179.779289 -8.992979 8.535444 -18.758488 -2.388094 9.229333 24.876998 8.297356 -9.541693 41.311977 10.203900 17.522900 60.167800 4.802554 -1.524110 -8.864587 -13.225500 -20.465145 70.396729 179.323094 8.340975 -28.103207 -5.663500 14.094100 -43.615700 -0.003116 2.186240 -4.675141 -0.997593 1.538769 -4.369484 8.472179 6.157097 11.220602 3.511700 3.468900 1.014100 -49.266062 10.013999 16.851130 8.464048 -18.943499 -3.162018 -0.162662 -0.064195 -11.825518 -7.125000 0.000000 0.000000 72.976874 -27.547907 1.879307 -6.750974 14.934590 -3.247807 2.371027 6.807019 -1.144479 7.125000 0.000000 0.000000 
10.931209 19.188946 -29.492364 178.605866 25.301998 -179.808363 -8.818559 8.105387 -17.625642 -2.135707 9.297243 24.231692 7.236392 -4.628904 41.898493 10.234500 17.539600 60.269100 5.434170 -0.404454 -9.762993 -12.010783 -20.189155 67.001641 179.493081 8.877578 -28.041128 -5.262300 13.673300 -41.944000 0.184303 1.626129 -4.615209 -0.510592 1.243323 -4.169163 8.375071 6.459370 11.310983 3.376700 3.604800 0.802000 -51.739715 9.731251 20.226992 10.809939 -21.645691 -4.099072 -0.082523 -0.154358 -13.803326 -7.125000 0.000000 0.000000 73.221852 -26.383314 5.498864 -7.905608 16.242597 -3.537642 1.809101 6.680818 -2.269846 7.125000 0.000000 0.000000 
10.944681 19.506236 -29.816444 178.866412 24.166474 -179.790494 -8.489453 8.530346 -17.209997 -1.563785 9.659814 24.115696 5.809734 1.490361 42.934581 10.369700 17.612600 60.716900 6.159700 0.543530 -10.737162 -10.710980 -19.805331 63.370170 179.699589 9.465794 -27.862600 -5.317500 13.732600 -42.176900 0.362362 1.155866 -4.541916 -0.079675 0.983284 -3.818757 8.154164 6.552111 11.395952 3.160300 3.644600 0.697500 -54.286694 9.182768 23.736560 13.540181 -24.668570 -5.374464 0.249512 -0.349910 -14.533383 -7.125000 0.000000 0.000000 73.821559 -25.137515 8.378984 -9.189377 17.483311 -3.655776 0.905179 5.877380 -3.411599 7.125000 0.000000 0.000000 
10.959123 19.843465 -30.122202 178.973865 22.856209 -179.920440 -8.231453 9.433032 -17.348640 -0.678332 10.328824 24.560510 4.038133 8.425386 43.418703 10.432800 17.646200 60.925500 6.608387 1.171171 -11.556970 -9.360468 -19.269624 59.519803 179.744053 9.667204 -28.154472 -5.300400 13.714300 -42.105000 0.520297 0.738393 -4.494511 0.363649 0.757584 -3.563427 7.875865 6.452206 11.590713 2.934500 3.599900 0.804100 -56.828848 8.401076 26.911043 17.039753 -28.119275 -7.115195 0.421092 -0.656036 -13.795830 -7.125000 0.000000 0.000000 74.836182 -23.923782 10.512195 -10.449378 18.739677 -4.133115 0.488108 5.966331 -5.471333 7.125000 0.000000 0.000000 
10.967960 20.168084 -30.421279 179.113255 21.337181 179.797308 -7.863689 10.050897 -17.503696 0.256672 11.043062 25.173799 2.318959 14.857394 43.459901 10.211900 17.527300 60.194400 6.839806 1.228609 -11.864950 -7.875079 -18.524637 55.174893 179.601150 9.517396 -28.985760 -5.065800 13.457600 -41.106300 0.670753 0.251395 -4.445068 0.740337 0.505360 -3.377154 7.737697 6.449360 11.793457 2.812100 3.605900 0.890300 -59.154843 7.469255 29.498550 19.784680 -30.632976 -8.564906 0.519034 -0.525452 -14.704083 -7.125000 0.000000 0.000000 75.989738 -22.765378 12.956510 -11.718680 19.931075 -4.561415 0.377691 5.808795 -7.626225 7.125000 0.000000 0.000000 
10.973565 20.459939 -30.711086 179.683720 19.702998 179.581498 -6.922807 9.839627 -17.360996 0.837772 11.383135 25.359619 1.510225 18.667381 44.087749 10.557500 17.711600 61.335800 7.464576 1.427926 -12.810698 -6.957068 -18.049742 52.471951 179.633289 9.937284 -29.569224 -4.787900 13.140900 -39.898300 0.825585 -0.200912 -4.378917 0.974183 0.256159 -3.146315 7.633516 6.418649 11.846179 2.694200 3.593700 0.845900 -61.169783 6.172150 31.912957 22.531014 -32.974649 -10.112834 0.625775 -0.448333 -15.668840 -7.125000 0.000000 0.000000 77.000621 -21.451059 13.697793 -12.478746 20.544427 -4.843627 0.262623 5.787501 -9.379238 7.125000 0.000000 0.000000 
10.973026 20.706205 -31.009839 -179.732796 18.177764 179.458608 -5.728440 8.661817 -16.756888 0.888523 11.253991 24.566637 1.604814 20.354588 45.577037 10.052600 17.439300 59.664100 7.891071 1.457941 -13.365371 -5.984344 -17.476759 49.497553 179.918749 11.094817 -29.806745 -4.631300 12.956200 -39.204600 0.961821 -0.474678 -4.325270 1.137745 0.099602 -2.956630 7.401473 6.094903 11.802447 2.533100 3.426300 0.753200 -63.124737 4.780077 34.489469 25.491730 -35.323095 -11.871938 0.733489 -0.459479 -16.395630 -7.125000 0.000000 0.000000 77.983627 -20.579279 14.350697 -13.371668 21.332748 -5.180784 0.190723 5.694961 -10.273985 7.125000 0.000000 0.000000 
10.965913 20.895890 -31.338015 -179.354741 16.912880 179.251509 -4.719457 6.676259 -15.614568 0.249081 10.570624 22.991301 1.657283 18.717202 44.589811 10.527300 17.695900 61.236500 8.009277 1.463173 -13.425866 -5.024160 -16.816909 46.413128 -179.728633 12.496343 -30.139485 -4.734900 13.078900 -39.664400 1.065516 -0.604752 -4.284951 1.213570 0.024613 -2.776889 7.140931 5.607306 11.825006 2.393900 3.178300 0.728300 -65.024838 3.581315 37.519547 28.725456 -37.687311 -13.856192 0.785324 -0.531571 -17.459511 -7.125000 0.000000 0.000000 78.890759 -20.150611 15.531942 -14.553679 22.490691 -5.687965 0.087172 5.608923 -11.569381 7.125000 0.000000 0.000000 
